<svg xmlns="http://www.w3.org/2000/svg" xmlns:xlink="http://www.w3.org/1999/xlink" width="260" height="80" viewBox="0 0 260 80"><defs><clipPath id="a"><rect width="1920" height="1080"/></clipPath><clipPath id="b"><rect width="228" height="100" transform="translate(0.2)"/></clipPath><clipPath id="d"><rect width="260" height="80"/></clipPath></defs><g id="c" clip-path="url(#d)"><rect width="260" height="80" fill="#fff"/><g transform="translate(-830 -500)"><g clip-path="url(#a)"><path d="M0,0H1920V1080H0Z" fill="#fff"/><g transform="translate(-214.25 48.244)"><path d="M319.7,220.4" fill="#fff"/><path d="M331.3,220.2l97.9.2,15.2-31.8-6.5,6.6-7.7,5.7-3.1,1.3-4.9,1.6-3.3.4-2.2.1-2.7-.2-2.8-.5-2.3-.7.4-2.2,3.2-17.7-8.3,8.4-6,4.9h-.9l-7.7-8.1-7.9-10.7,1.3-.2,1.7-.5,1.9-1.8.1-2.7-1.8-1.7-1.9-.9-1.8-.4h-2.6l-1.2.3-1.2.4-1,.6-.7.5-.6,1.2-.1,1.8.1.4.4.6.6.7,1.2.9s-.2.2,1,.5l1.1.3.1.3-1.6,2.8-6.3,8.5-6.6,6.9-5.3,4.3-.9-.1-9.3-7.1-5.7-5.5-4.7-4.9v1.5l1.1,5.9,1.6,7.8.7,4.8-.1.3-.6.1-5.5-1.8-7-3-8.6-4.7L308,185.9l.9,1.8,5.5,8.3,11.2,16Z" fill="#231f20"/><path d="M331.5,222.4v12.2l98-.1V222.4h-98Z" fill="#231f20"/><path d="M306.3,185.2h1l.5.2.5.5.2.5.1.7-.1.7-.4.5-.4.4-.1.1-.5.2H306l-.5-.4-.5-.6-.1-.4-.1-1,.4-.6.5-.5.1-.1Z" fill="#231f20"/><path d="M336.7,181.5h.8l.8.3.6.5.2.6v.8l-.1.6-.4.6-.6.4h-1.3l-.7-.4-.4-.5-.2-.6v-1l.5-.6.4-.3Z" fill="#231f20"/><path d="M412.9,181.6h1.4l.8.6.3.7v1a.75.75,0,0,1-.3.6l-.5.5-.2.1-.3.2h-1.3l-.6-.4-.4-.5-.2-.5v-1.3l.4-.7Z" fill="#231f20"/><path d="M445,185.4h1.5l.7.5.4.6.1.1V188l-.4.5-.5.5-.2.1-1.5-.1-.6-.4-.5-.6v-1.4l.3-.4Z" fill="#231f20"/></g><text transform="translate(240 247)" fill="#d1ab2b" font-size="20" font-family="Algerian"><tspan x="0" y="0">King</tspan></text><text transform="translate(240 263)" fill="#d1ab2b" font-size="20" font-family="Algerian"><tspan x="0" y="0">&amp;</tspan></text><text transform="translate(240 279)" fill="#d1ab2b" font-size="20" font-family="Algerian"><tspan x="0" y="0">Queen</tspan></text></g><g transform="translate(850.8 490)" clip-path="url(#b)"><rect width="228" height="100" transform="translate(0.2)" fill="#fff"/><g transform="translate(22.411 17.984)"><g transform="translate(0)"><path d="M319.708,213.521" transform="translate(-290.411 -173.486)" fill="#fff"/><path d="M325.082,224.145l71.559.166,11.111-29.968-4.744,6.217-5.642,5.327-2.244,1.195-3.537,1.514-2.394.41-1.6.106-1.965-.231-2.03-.5-1.688-.676.255-2.1,2.372-16.64-6.047,7.946-4.4,4.614-.684.018-5.619-7.607-5.764-10.049.983-.2,1.24-.516,1.376-1.711.085-2.546-1.281-1.586-1.376-.82-1.346-.339h-1.922l-.878.25-.855.392-.727.588-.535.5-.448,1.14-.106,1.728.043.391.3.57.45.643.877.855s-.13.143.706.445l.833.3.087.321-1.2,2.6-4.595,8-4.809,6.486-3.846,4.026-.641-.09-6.8-6.681-4.184-5.18-3.463-4.631v1.443l.812,5.541,1.154,7.341.533,4.525-.085.25-.428.053-4.038-1.675-5.149-2.779-6.261-4.473-8.376-7.25.662,1.711,4.017,7.821,8.163,15.073Z" transform="translate(-304.39 -176.17)" fill="#231f20"/><path d="M319.849,215.53v10.229l71.323-.1V215.53Z" transform="translate(-298.921 -163.409)" fill="#231f20"/><path d="M307.657,183.918h2.006l.983.194,1.061.635.487.6.143.848-.173.864-.772.652-.717.511-.287.141-.918.212h-2.15l-1-.441-1.148-.759-.257-.529-.114-1.289.745-.687s.774-.546.983-.653l.2-.106Z" transform="translate(-304.8 -172.587)" fill="#231f20"/><path d="M323.274,181.477h1.549l1.519.353,1.089.635.393.759v.987l-.23.741-.861.759-1.189.476h-2.567l-1.405-.476-.831-.635-.487-.811v-1.235l.918-.794.861-.424Z" transform="translate(-299.986 -172.257)" fill="#231f20"/><path d="M361.583,181.575h2.808l1.492.706.631.9a8.6,8.6,0,0,1,0,1.288.777.777,0,0,1-.6.688l-.918.6-.428.159-.5.265h-2.478l-1.091-.441-.831-.618-.393-.565v-1.64l.831-.847Z" transform="translate(-282.731 -170.984)" fill="#231f20"/><path d="M377.758,184.125h2.895l1.376.635.8.705.173.176v1.729l-.774.617-1.061.583-.487.176-2.924-.07-1.118-.529-1-.846v-1.75l.544-.546Z" transform="translate(-275.32 -169.996)" fill="#231f20"/></g></g><text transform="translate(131.2 36)" fill="#d1ab2b" font-size="12" font-family="Algerian"><tspan x="0" y="0" xml:space="preserve">  King</tspan><tspan x="0" y="16" xml:space="preserve">     &amp;</tspan><tspan x="0" y="32">Queen</tspan></text></g></g></g></svg>